{
	"asset":{
		"generator":"Khronos glTF Blender I/O v3.6.27",
		"version":"2.0"
	},
	"scene":0,
	"scenes":[
		{
			"name":"Scene",
			"nodes":[
				0
			]
		}
	],
	"nodes":[
		{
			"mesh":0,
			"name":"Cone"
		}
	],
	"materials":[
		{
			"doubleSided":true,
			"name":"White",
			"pbrMetallicRoughness":{
				"metallicFactor":0,
				"roughnessFactor":0.5
			}
		},
		{
			"doubleSided":true,
			"name":"Red",
			"pbrMetallicRoughness":{
				"baseColorFactor":[
					0.8000000715255737,
					0,
					0.0017321028281003237,
					1
				],
				"metallicFactor":0,
				"roughnessFactor":0.5
			}
		},
		{
			"doubleSided":true,
			"name":"Green",
			"pbrMetallicRoughness":{
				"baseColorFactor":[
					0,
					0.8000000715255737,
					0.002082172781229019,
					1
				],
				"metallicFactor":0,
				"roughnessFactor":0.5
			}
		},
		{
			"doubleSided":true,
			"name":"Blue",
			"pbrMetallicRoughness":{
				"baseColorFactor":[
					0,
					0.00268953968770802,
					0.8000000715255737,
					1
				],
				"metallicFactor":0,
				"roughnessFactor":0.5
			}
		},
		{
			"doubleSided":true,
			"name":"Yellow",
			"pbrMetallicRoughness":{
				"baseColorFactor":[
					0.8000000715255737,
					0.7161686420440674,
					0,
					1
				],
				"metallicFactor":0,
				"roughnessFactor":0.5
			}
		}
	],
	"meshes":[
		{
			"name":"Cone.001",
			"primitives":[
				{
					"attributes":{
						"POSITION":0,
						"NORMAL":1,
						"TEXCOORD_0":2
					},
					"indices":3,
					"material":0
				},
				{
					"attributes":{
						"POSITION":4,
						"NORMAL":5,
						"TEXCOORD_0":6
					},
					"indices":7,
					"material":1
				},
				{
					"attributes":{
						"POSITION":8,
						"NORMAL":9,
						"TEXCOORD_0":10
					},
					"indices":11,
					"material":2
				},
				{
					"attributes":{
						"POSITION":12,
						"NORMAL":13,
						"TEXCOORD_0":14
					},
					"indices":15,
					"material":3
				},
				{
					"attributes":{
						"POSITION":16,
						"NORMAL":17,
						"TEXCOORD_0":18
					},
					"indices":19,
					"material":4
				}
			]
		}
	],
	"accessors":[
		{
			"bufferView":0,
			"componentType":5126,
			"count":12,
			"max":[
				0.4999997615814209,
				0,
				0.5773500204086304
			],
			"min":[
				-0.4999997615814209,
				-0.8164966106414795,
				-0.5773500204086304
			],
			"type":"VEC3"
		},
		{
			"bufferView":1,
			"componentType":5126,
			"count":12,
			"type":"VEC3"
		},
		{
			"bufferView":2,
			"componentType":5126,
			"count":12,
			"type":"VEC2"
		},
		{
			"bufferView":3,
			"componentType":5123,
			"count":12,
			"type":"SCALAR"
		},
		{
			"bufferView":4,
			"componentType":5126,
			"count":9,
			"max":[
				0,
				0,
				0.5773500204086304
			],
			"min":[
				-0.9999995231628418,
				-0.8164966106414795,
				-0.2886750102043152
			],
			"type":"VEC3"
		},
		{
			"bufferView":5,
			"componentType":5126,
			"count":9,
			"type":"VEC3"
		},
		{
			"bufferView":6,
			"componentType":5126,
			"count":9,
			"type":"VEC2"
		},
		{
			"bufferView":7,
			"componentType":5123,
			"count":9,
			"type":"SCALAR"
		},
		{
			"bufferView":8,
			"componentType":5126,
			"count":9,
			"max":[
				0.4999997615814209,
				0.8164966106414795,
				0.2886750102043152
			],
			"min":[
				-0.4999997615814209,
				0,
				-0.5773500204086304
			],
			"type":"VEC3"
		},
		{
			"bufferView":9,
			"componentType":5126,
			"count":9,
			"type":"VEC3"
		},
		{
			"bufferView":10,
			"componentType":5126,
			"count":9,
			"type":"VEC2"
		},
		{
			"bufferView":11,
			"componentType":5123,
			"count":9,
			"type":"SCALAR"
		},
		{
			"bufferView":12,
			"componentType":5126,
			"count":9,
			"max":[
				0.9999995231628418,
				0,
				0.5773500204086304
			],
			"min":[
				0,
				-0.8164966106414795,
				-0.2886750102043152
			],
			"type":"VEC3"
		},
		{
			"bufferView":13,
			"componentType":5126,
			"count":9,
			"type":"VEC3"
		},
		{
			"bufferView":14,
			"componentType":5126,
			"count":9,
			"type":"VEC2"
		},
		{
			"bufferView":15,
			"componentType":5123,
			"count":9,
			"type":"SCALAR"
		},
		{
			"bufferView":16,
			"componentType":5126,
			"count":9,
			"max":[
				0.4999997615814209,
				0,
				-0.2886750102043152
			],
			"min":[
				-0.4999997615814209,
				-0.8164966106414795,
				-1.1547000408172607
			],
			"type":"VEC3"
		},
		{
			"bufferView":17,
			"componentType":5126,
			"count":9,
			"type":"VEC3"
		},
		{
			"bufferView":18,
			"componentType":5126,
			"count":9,
			"type":"VEC2"
		},
		{
			"bufferView":19,
			"componentType":5123,
			"count":9,
			"type":"SCALAR"
		}
	],
	"bufferViews":[
		{
			"buffer":0,
			"byteLength":144,
			"byteOffset":0,
			"target":34962
		},
		{
			"buffer":0,
			"byteLength":144,
			"byteOffset":144,
			"target":34962
		},
		{
			"buffer":0,
			"byteLength":96,
			"byteOffset":288,
			"target":34962
		},
		{
			"buffer":0,
			"byteLength":24,
			"byteOffset":384,
			"target":34963
		},
		{
			"buffer":0,
			"byteLength":108,
			"byteOffset":408,
			"target":34962
		},
		{
			"buffer":0,
			"byteLength":108,
			"byteOffset":516,
			"target":34962
		},
		{
			"buffer":0,
			"byteLength":72,
			"byteOffset":624,
			"target":34962
		},
		{
			"buffer":0,
			"byteLength":18,
			"byteOffset":696,
			"target":34963
		},
		{
			"buffer":0,
			"byteLength":108,
			"byteOffset":716,
			"target":34962
		},
		{
			"buffer":0,
			"byteLength":108,
			"byteOffset":824,
			"target":34962
		},
		{
			"buffer":0,
			"byteLength":72,
			"byteOffset":932,
			"target":34962
		},
		{
			"buffer":0,
			"byteLength":18,
			"byteOffset":1004,
			"target":34963
		},
		{
			"buffer":0,
			"byteLength":108,
			"byteOffset":1024,
			"target":34962
		},
		{
			"buffer":0,
			"byteLength":108,
			"byteOffset":1132,
			"target":34962
		},
		{
			"buffer":0,
			"byteLength":72,
			"byteOffset":1240,
			"target":34962
		},
		{
			"buffer":0,
			"byteLength":18,
			"byteOffset":1312,
			"target":34963
		},
		{
			"buffer":0,
			"byteLength":108,
			"byteOffset":1332,
			"target":34962
		},
		{
			"buffer":0,
			"byteLength":108,
			"byteOffset":1440,
			"target":34962
		},
		{
			"buffer":0,
			"byteLength":72,
			"byteOffset":1548,
			"target":34962
		},
		{
			"buffer":0,
			"byteLength":18,
			"byteOffset":1620,
			"target":34963
		}
	],
	"buffers":[
		{
			"byteLength":1640,
			"uri":"data:application/octet-stream;base64,"
		}
	]
}
